<svg width="251" height="215" viewBox="0 0 251 215" fill="none" xmlns="http://www.w3.org/2000/svg">
<path d="M187.007 171.55L202.838 198.97C194.662 203.113 185.549 206.49 175.5 209.1C160.3 212.9 143.4 214.8 124.8 214.8C108.2 214.8 92.4 212.5 77.4 207.9C62.4 203.3 49.1 196.5 37.5 187.5C25.9 178.5 16.7 167.3 9.90002 153.9C3.30002 140.3 0 124.6 0 106.8C0 91.8 3.30002 77.8 9.90002 64.8C16.5 51.8 25.7 40.5 37.5 30.9C49.5 21.1 63.3 13.5 78.9 8.10001C94.7 2.7 111.6 0 129.6 0C144.8 0 158.8 1.7 171.6 5.10001C184.6 8.5 196 12.9 205.8 18.3C215.8 23.7 223.6 29.5 229.2 35.7L208.2 59.4C201 53.8 193.2 49 184.8 45C176.6 40.8 167.8 37.5 158.4 35.1C149.2 32.7 139.6 31.5 129.6 31.5C116.2 31.5 103.7 33.4 92.1 37.2C80.7 41 70.6 46.3 61.8 53.1C53.2 59.9 46.5 67.9 41.7 77.1C36.9 86.1 34.5 96 34.5 106.8C34.5 120 37 131.5 42 141.3C47.2 150.9 54.2 158.8 63 165C71.8 171.2 81.7 175.8 92.7 178.8C103.9 181.8 115.5 183.3 127.5 183.3C139.7 183.3 151.1 182.2 161.7 180C171.225 177.883 179.66 175.067 187.007 171.55Z" fill="white"/>
<path fill-rule="evenodd" clip-rule="evenodd" d="M214.2 135.9C214.28 136.809 214.316 137.709 214.307 138.6H218.7L213.9 132L214.2 135.9Z" fill="white"/>
<path d="M218.7 138.6L213.9 132L214.2 135.9C214.28 136.809 214.316 137.709 214.307 138.6H129V107.1H249C249.4 110.1 249.7 112.5 249.9 114.3C250.1 116.1 250.2 117.5 250.2 118.5V120.9C250.2 136.7 247.1 150.5 240.9 162.3C235.391 173.134 227.691 182.282 217.798 189.744L201.755 161.956C204.342 159.702 206.591 157.317 208.5 154.8C212.312 149.775 214.247 144.375 214.307 138.6H218.7Z" fill="white"/>
</svg>
